<svg viewBox="0 0 16 16" xmlns="http://www.w3.org/2000/svg" xmlns:xlink="http://www.w3.org/1999/xlink" width="16.000000" height="16.000000" fill="none">
	<rect id="LAYER" width="16.000000" height="16.000000" x="0.000000" y="0.000000" />
	<g id="组合 27">
		<circle id="椭圆 26" cx="4.5" cy="5.5" r="1" stroke="rgb(0,0,0)" stroke-width="1.000000" />
		<circle id="椭圆 28" cx="11.5" cy="3" r="1" stroke="rgb(0,0,0)" stroke-width="1.000000" />
		<circle id="椭圆 29" cx="11.5" cy="8" r="1" stroke="rgb(0,0,0)" stroke-width="1.000000" />
		<circle id="椭圆 30" cx="11.5" cy="13" r="1" stroke="rgb(0,0,0)" stroke-width="1.000000" />
		<circle id="椭圆 27" cx="4.5" cy="11" r="1" stroke="rgb(0,0,0)" stroke-width="1.000000" />
		<path id="矢量 41" d="M5 6.5L11 12.5" stroke="rgb(0,0,0)" stroke-width="0.800000" />
		<path id="矢量 43" d="M0 0L6 2" stroke="rgb(0,0,0)" stroke-width="0.800000" transform="matrix(1,0,0,-1,5,5.5)" />
		<path id="矢量 45" d="M5 11.5L11 12.5" stroke="rgb(0,0,0)" stroke-width="0.800000" />
		<path id="矢量 46" d="M0 0L6 2" stroke="rgb(0,0,0)" stroke-width="0.800000" transform="matrix(1,0,0,-1,5,10.5)" />
		<path id="矢量 47" d="M0 0L6 7" stroke="rgb(0,0,0)" stroke-width="0.800000" transform="matrix(1,0,0,-1,5,10.5)" />
		<path id="矢量 44" d="M5.5 5.5L10.5 8" stroke="rgb(0,0,0)" stroke-width="0.800000" />
	</g>
</svg>
